<svg width="851" height="741" viewBox="0 0 851 741" fill="none" xmlns="http://www.w3.org/2000/svg">
<g clip-path="url(#clip0_1_242)">
<path d="M419.578 740.74C416.928 740.8 414.268 740.83 411.598 740.83C348.168 740.83 268.388 706.95 195.988 660.05C189.998 656.17 184.061 652.2 178.178 648.14L183.338 616.74L339.548 596L417.948 655.95L419.578 740.74Z" fill="#142E38"/>
<path d="M336.095 660.051H335.475L336.005 659.981L336.095 660.051Z" fill="#2F2E41"/>
<path d="M282.814 245.055C320.548 245.055 351.136 214.466 351.136 176.733C351.136 139 320.548 108.411 282.814 108.411C245.081 108.411 214.493 139 214.493 176.733C214.493 214.466 245.081 245.055 282.814 245.055Z" fill="#FCD091"/>
<path d="M342.646 126.64C342.646 126.64 360.515 92.4794 321.202 89.3739C321.202 89.3739 287.687 58.9716 253.526 83.8159C253.526 83.8159 234.893 83.8159 224.704 104.902C224.704 104.902 210.049 99.3435 206.828 114.218C206.828 114.218 196.105 145.274 206.828 173.223C217.552 201.173 221.114 204.279 221.114 204.279C221.114 204.279 203.493 145.68 246.384 142.575C289.274 139.469 337.27 112.665 340.845 146.826C344.419 180.987 349.798 189.404 349.798 189.404C349.798 189.404 383.748 140.615 342.646 126.64Z" fill="#A27E24"/>
<path d="M459.548 345.11L459.328 346.27L456.858 359.31L439.788 449.51L438.778 454.82L436.658 466.05L433.758 481.37L427.328 515.32L425.488 525.05L424.798 528.7L424.558 529.98L422.648 540.05L422.068 543.09L417.408 577.62L413.338 607.71L426.958 621.329L418.838 629.449L413.508 659.98L413.518 660.05H195.988C187.188 654.35 178.515 648.473 169.968 642.419L171.758 629.02C171.758 629.02 177.918 605.09 175.328 602.23C172.748 599.37 167.088 594.26 167.088 594.26L174.218 577.62L175.208 575.31L173.548 540.88L173.508 540.05L172.958 528.699L172.888 527.239L172.778 525.05L170.668 481.369L170.628 480.649L169.988 467.409L169.388 454.82L169.128 449.509L166.558 396.379L164.818 360.3L163.298 328.89L169.408 326.82L234.758 304.609L261.828 269.419L318.168 269.839L345.748 270.05L391.768 312.729L402.238 317.729L402.318 317.769L409.828 321.359L428.868 330.449L448.998 340.07L459.328 345L459.548 345.11Z" fill="#114E73"/>
<path d="M269.109 557.551C264.98 559.15 260.551 559.825 256.134 559.528C251.716 559.23 247.417 557.968 243.54 555.829C239.663 553.691 236.303 550.728 233.694 547.15C231.086 543.572 229.294 539.466 228.445 535.121L121.886 520.003L158.929 478.101L254.44 498.881C261.834 497.938 269.318 499.74 275.473 503.946C281.628 508.151 286.026 514.469 287.834 521.701C289.642 528.932 288.734 536.576 285.283 543.184C281.832 549.791 276.077 554.903 269.109 557.551Z" fill="#FCD091"/>
<path d="M221.598 481.37C219.624 478.867 216.83 477.142 213.708 476.5L169.988 467.409L165.498 466.48C162.889 465.935 160.424 464.846 158.264 463.283C156.105 461.72 154.3 459.718 152.968 457.409C151.586 454.986 150.75 452.29 150.518 449.51C150.31 446.982 150.612 444.438 151.408 442.03L166.558 396.38L176.388 366.76C177.579 363.187 178.282 359.47 178.478 355.71C179.026 345.302 175.806 335.046 169.408 326.82C163.783 319.589 155.982 314.359 147.156 311.903C138.331 309.446 128.949 309.894 120.398 313.18C120.148 313.27 119.888 313.37 119.638 313.47C113.505 315.918 108.026 319.76 103.633 324.691C99.2408 329.621 96.055 335.506 94.3279 341.88L83.648 380.73L61.6179 460.82C59.4126 468.844 58.9671 477.25 60.3119 485.462C61.6566 493.675 64.7599 501.5 69.4092 508.402C74.0586 515.304 80.1444 521.12 87.2499 525.451C94.3554 529.783 102.313 532.528 110.578 533.5L173.548 540.88L202.688 544.3C206.058 544.705 209.456 543.825 212.206 541.837C214.956 539.848 216.857 536.896 217.528 533.57C217.575 533.388 217.612 533.205 217.638 533.02L218.338 528.699L224.268 492.32L224.328 491.949C224.637 490.093 224.554 488.193 224.083 486.37C223.613 484.548 222.767 482.845 221.598 481.37Z" fill="#114E73"/>
<path d="M336.983 558.717C341.295 559.718 345.775 559.762 350.107 558.844C354.438 557.927 358.516 556.071 362.053 553.407C365.589 550.743 368.499 547.336 370.576 543.426C372.654 539.517 373.849 535.199 374.077 530.777L477.439 500.783L434.857 464.524L343.231 498.565C335.778 498.674 328.623 501.513 323.123 506.545C317.622 511.577 314.159 518.451 313.389 525.866C312.619 533.28 314.595 540.72 318.943 546.775C323.292 552.829 329.71 557.079 336.983 558.717Z" fill="#FCD091"/>
<path d="M528.758 433.69L479.598 320.55C475.577 311.261 468.396 303.697 459.328 299.2C456.525 297.82 453.581 296.747 450.548 296C450.078 295.88 449.608 295.77 449.138 295.679C442.706 294.276 436.034 294.399 429.658 296.04C423.83 297.537 418.383 300.246 413.672 303.99C408.961 307.734 405.092 312.43 402.318 317.77C402.288 317.814 402.261 317.861 402.238 317.909C399.139 323.904 397.491 330.543 397.427 337.29C397.363 344.038 398.884 350.707 401.868 356.76L402.478 357.98L437.218 427.75C438.404 430.135 439.073 432.745 439.179 435.407C439.286 438.07 438.829 440.724 437.837 443.198C436.846 445.671 435.342 447.906 433.426 449.757C431.51 451.609 429.224 453.034 426.718 453.939L424.278 454.82L380.398 470.669C377.105 471.844 374.397 474.251 372.843 477.383C371.29 480.515 371.012 484.127 372.068 487.46L372.178 487.81L384.478 527.169C384.538 527.35 384.598 527.53 384.668 527.709C384.776 528.049 384.91 528.38 385.068 528.699C386.375 531.631 388.686 534 391.584 535.381C394.482 536.761 397.778 537.062 400.878 536.229L424.558 529.979L429.388 528.699L490.538 512.55C498.584 510.423 506.076 506.584 512.5 501.293C518.924 496.003 524.129 489.386 527.759 481.897C531.389 474.408 533.357 466.223 533.53 457.903C533.702 449.582 532.074 441.323 528.758 433.69Z" fill="#114E73" fill-opacity="0.933333"/>
<path d="M44.898 528.7C59.0684 545.983 74.3509 562.325 90.648 577.62H542.618C546.972 577.626 551.147 579.36 554.225 582.44C557.303 585.52 559.034 589.695 559.038 594.05L559.688 708.58C587.493 695.805 613.531 679.493 637.158 660.05C643.718 654.66 650.075 649.036 656.228 643.18C660.258 639.36 664.191 635.446 668.028 631.44C696.792 601.475 720.084 566.702 736.848 528.7H44.898Z" fill="#142E38"/>
<path d="M668.028 631.44C664.198 635.45 660.265 639.363 656.228 643.18H560.018V631.44H668.028Z" fill="#04090B"/>
<path d="M458.648 255.95C458.173 255.072 457.469 254.34 456.612 253.829C455.755 253.319 454.776 253.049 453.778 253.05H125.938C124.468 253.053 123.06 253.64 122.021 254.68C120.983 255.72 120.399 257.13 120.398 258.6V454.82H459.328V258.6C459.333 257.672 459.099 256.76 458.648 255.95Z" fill="#142E38"/>
<path d="M120.101 449.507V473.721C120.101 474.725 120.299 475.719 120.683 476.646C121.067 477.574 121.63 478.416 122.34 479.126C123.05 479.836 123.892 480.399 124.82 480.783C125.747 481.167 126.741 481.365 127.745 481.365H252.842V529.151H251.18C251.049 529.151 250.92 529.177 250.8 529.227C250.679 529.277 250.57 529.35 250.478 529.442C250.385 529.534 250.312 529.644 250.262 529.764C250.213 529.885 250.187 530.014 250.187 530.144V533.468C250.187 533.599 250.212 533.728 250.262 533.848C250.312 533.969 250.385 534.078 250.478 534.17C250.57 534.263 250.679 534.336 250.8 534.386C250.92 534.435 251.049 534.461 251.18 534.461H328.838C328.969 534.461 329.098 534.435 329.218 534.386C329.339 534.336 329.448 534.263 329.54 534.17C329.633 534.078 329.706 533.969 329.756 533.848C329.806 533.728 329.831 533.599 329.831 533.468V530.144C329.831 530.014 329.806 529.885 329.756 529.764C329.706 529.644 329.633 529.534 329.54 529.442C329.448 529.35 329.339 529.277 329.218 529.227C329.098 529.177 328.969 529.151 328.838 529.151H327.176V481.365H452.273C453.277 481.365 454.271 481.167 455.198 480.783C456.126 480.399 456.968 479.836 457.678 479.126C458.388 478.416 458.951 477.574 459.335 476.646C459.719 475.719 459.917 474.725 459.917 473.721V449.507H120.101Z" fill="#142E38"/>
<path d="M365.668 173H360.668C360.668 135.2 323.258 110.43 285.518 110.41C280.029 110.394 274.551 110.926 269.168 112C263.108 113.21 256.818 114.66 250.638 116.55C226.268 124.02 203.668 138.46 203.668 173C203.663 179.707 204.516 186.388 206.208 192.88L201.368 194.14C199.573 187.236 198.665 180.132 198.668 173C198.668 142.82 211.058 122.09 232.458 109.73C243.708 103.23 257.438 99.0396 273.168 96.9996C279.714 96.1287 286.331 95.9277 292.918 96.3996C336.318 99.5195 365.668 132.8 365.668 173Z" fill="#004570"/>
<path d="M373.998 175.77L372.028 161.21C371.542 157.533 369.771 154.146 367.028 151.65C365.267 150.022 363.159 148.816 360.864 148.123C358.568 147.43 356.145 147.268 353.778 147.65L350.648 148.08C349.792 148.192 348.966 148.474 348.219 148.908C347.473 149.343 346.819 149.921 346.298 150.61C345.772 151.296 345.387 152.08 345.166 152.916C344.945 153.751 344.891 154.623 345.008 155.48L349.558 189.02C349.746 190.387 350.358 191.66 351.309 192.66C352.261 193.659 353.502 194.334 354.858 194.59C355.26 194.67 355.668 194.71 356.078 194.71C356.372 194.709 356.666 194.689 356.958 194.65L360.458 194.18C362.592 193.896 364.645 193.18 366.492 192.074C368.339 190.968 369.941 189.497 371.198 187.75C371.468 187.37 371.728 186.98 371.968 186.579C373.842 183.307 374.558 179.499 373.998 175.77Z" fill="#004570"/>
<path d="M348.628 148.69C347.71 149.136 346.911 149.794 346.298 150.61C345.772 151.296 345.387 152.08 345.166 152.916C344.945 153.751 344.891 154.623 345.008 155.48L349.558 189.02C349.746 190.387 350.358 191.66 351.309 192.66C352.261 193.659 353.502 194.334 354.858 194.59L348.628 148.69Z" fill="#F4F9FB"/>
<path d="M373.998 175.77L372.028 161.21C371.542 157.533 369.771 154.146 367.028 151.65L371.558 185.02C371.626 185.555 371.764 186.08 371.968 186.58C373.842 183.307 374.558 179.499 373.998 175.77Z" fill="#142E38"/>
<path d="M358.428 186.26C359.796 186.075 360.484 182.819 359.965 178.988C359.445 175.157 357.915 172.202 356.546 172.387C355.178 172.573 354.49 175.829 355.01 179.66C355.53 183.491 357.06 186.446 358.428 186.26Z" fill="#142E36"/>
<path d="M355.428 168.26C356.796 168.075 357.484 164.819 356.965 160.988C356.445 157.157 354.915 154.202 353.546 154.387C352.178 154.573 351.49 157.829 352.01 161.66C352.53 165.491 354.06 168.446 355.428 168.26Z" fill="#142E36"/>
<path d="M374.428 175.26C375.796 175.075 376.484 171.819 375.965 167.988C375.445 164.157 373.915 161.202 372.546 161.387C371.178 161.573 370.49 164.829 371.01 168.66C371.53 172.491 373.06 175.446 374.428 175.26Z" fill="#142E38"/>
<path d="M285.518 110.41C280.029 110.394 274.551 110.926 269.168 112C263.108 113.21 256.818 114.66 250.638 116.55C240.988 116.08 233.888 113.58 232.458 109.73C243.708 103.23 257.438 99.0395 273.168 96.9995C279.714 96.1287 286.331 95.9277 292.918 96.3996C293.615 96.8083 294.218 97.36 294.687 98.0184C295.156 98.6768 295.48 99.4269 295.638 100.22C296.108 103.7 292.138 107.4 285.518 110.41Z" fill="#142E38"/>
<path d="M221.678 207.7L213.978 175.69C213.703 174.535 213.094 173.487 212.226 172.677C211.357 171.868 210.269 171.333 209.098 171.14C208.767 171.088 208.433 171.061 208.098 171.06C207.626 171.061 207.156 171.118 206.698 171.23L203.718 171.95C199.881 172.878 196.569 175.29 194.509 178.657C192.448 182.024 191.808 186.071 192.728 189.91L196.178 204.27C196.966 207.65 198.842 210.679 201.518 212.89C201.952 213.24 202.406 213.564 202.878 213.86C204.554 214.91 206.424 215.614 208.377 215.93C210.33 216.246 212.326 216.168 214.248 215.7L217.218 214.98C218.003 214.796 218.742 214.453 219.388 213.97C220.348 213.269 221.079 212.299 221.487 211.183C221.894 210.066 221.961 208.854 221.678 207.7Z" fill="#004570"/>
<path d="M205.536 201.744C206.878 201.421 207.233 198.112 206.329 194.353C205.424 190.594 203.603 187.809 202.26 188.132C200.918 188.455 200.563 191.764 201.467 195.523C202.372 199.282 204.193 202.067 205.536 201.744Z" fill="#142E38"/>
<path d="M195.536 204.744C196.878 204.421 197.233 201.112 196.329 197.353C195.424 193.594 193.603 190.809 192.26 191.132C190.918 191.455 190.563 194.764 191.467 198.523C192.372 202.282 194.193 205.067 195.536 204.744Z" fill="#142E38"/>
<path d="M222.168 207.58L214.468 175.57C214.168 174.32 213.506 173.187 212.565 172.312C211.624 171.436 210.446 170.858 209.178 170.65L219.688 214.37C220.726 213.609 221.515 212.559 221.957 211.35C222.398 210.142 222.472 208.83 222.168 207.58Z" fill="#F4F9FB"/>
<path d="M194.468 183.57C194.256 182.679 193.857 181.844 193.298 181.12C192.216 183.923 192.017 186.99 192.728 189.91L196.178 204.27C196.966 207.65 198.842 210.679 201.518 212.89L194.468 183.57Z" fill="#142E38"/>
<path d="M339.483 354H320.931C320.931 353.715 320.823 353.427 320.604 353.208L296.906 329.51C296.698 329.302 296.58 329.017 296.58 328.722V313.597C296.58 312.483 297.927 311.927 298.715 312.715L339.115 353.115C339.361 353.361 339.483 353.681 339.483 354Z" fill="url(#paint0_linear_1_242)"/>
<path d="M339.483 354C339.483 354.319 339.361 354.639 339.115 354.885L298.715 395.288C297.927 396.076 296.58 395.521 296.58 394.406V379.281C296.58 378.986 296.698 378.701 296.906 378.493L320.604 354.792C320.823 354.573 320.931 354.285 320.931 354H339.483Z" fill="url(#paint1_linear_1_242)"/>
<path d="M290 326.628V381.372C289.681 381.372 289.361 381.25 289.115 381.003L262.997 354.885C262.507 354.396 262.507 353.604 262.997 353.115L267.233 348.878V351.59L271.694 356.056V344.417L273.74 342.372L277.191 338.92L277.194 361.552L283.424 367.781V332.688L284.156 331.955L289.115 326.997C289.361 326.75 289.681 326.628 290 326.628Z" fill="url(#paint2_linear_1_242)"/>
<path d="M317.003 353.115L290.885 326.997C290.639 326.75 290.319 326.628 290 326.628V381.372C290.319 381.372 290.639 381.25 290.885 381.003L317.003 354.885C317.493 354.396 317.493 353.604 317.003 353.115ZM301.448 362.868C300.219 364.424 296.642 367.781 296.642 367.781L296.503 339.951C296.503 339.951 299.545 342.649 300.788 344.229C302.205 346.038 304.594 350.028 304.615 354.024C304.635 358.302 302.833 361.118 301.448 362.868Z" fill="url(#paint3_linear_1_242)"/>
<path d="M283.424 328.722C283.424 329.017 283.306 329.302 283.097 329.51L259.396 353.208C259.177 353.427 259.069 353.715 259.069 354H240.517C240.517 353.681 240.639 353.361 240.885 353.115L281.288 312.712C282.073 311.927 283.42 312.483 283.42 313.597L283.424 328.722Z" fill="url(#paint4_linear_1_242)"/>
<path d="M283.424 379.281L283.42 394.406C283.42 395.521 282.073 396.076 281.288 395.292L240.885 354.885C240.639 354.639 240.517 354.319 240.517 354H259.069C259.069 354.285 259.177 354.573 259.396 354.792L283.097 378.493C283.306 378.701 283.424 378.986 283.424 379.281Z" fill="url(#paint5_linear_1_242)"/>
</g>
<defs>
<linearGradient id="paint0_linear_1_242" x1="293.061" y1="316.595" x2="334.974" y2="358.509" gradientUnits="userSpaceOnUse">
<stop stop-color="#006089"/>
<stop offset="1" stop-color="#002F5A"/>
</linearGradient>
<linearGradient id="paint1_linear_1_242" x1="334.975" y1="349.492" x2="293.06" y2="391.407" gradientUnits="userSpaceOnUse">
<stop stop-color="#006089"/>
<stop offset="1" stop-color="#002F5A"/>
</linearGradient>
<linearGradient id="paint2_linear_1_242" x1="262.629" y1="354" x2="290" y2="354" gradientUnits="userSpaceOnUse">
<stop stop-color="#C0D7DD"/>
<stop offset="1" stop-color="#90B8C7"/>
</linearGradient>
<linearGradient id="paint3_linear_1_242" x1="290" y1="354" x2="317.371" y2="354" gradientUnits="userSpaceOnUse">
<stop stop-color="#C0D7DD"/>
<stop offset="1" stop-color="#90B8C7"/>
</linearGradient>
<linearGradient id="paint4_linear_1_242" x1="286.939" y1="316.595" x2="245.026" y2="358.509" gradientUnits="userSpaceOnUse">
<stop stop-color="#006089"/>
<stop offset="1" stop-color="#002F5A"/>
</linearGradient>
<linearGradient id="paint5_linear_1_242" x1="245.025" y1="349.492" x2="286.94" y2="391.407" gradientUnits="userSpaceOnUse">
<stop stop-color="#006089"/>
<stop offset="1" stop-color="#002F5A"/>
</linearGradient>
<clipPath id="clip0_1_242">
<rect width="850.538" height="740.83" fill="white"/>
</clipPath>
</defs>
</svg>
