<svg viewBox="0 0 863 828" fill="none" xmlns="http://www.w3.org/2000/svg">
<g clip-path="url(#clip0_1_2)">
<g filter="url(#filter0_d_1_2)">
<path d="M740.085 316.887C695.168 140.265 539.968 12.7694 357.796 7.65564C261.488 4.95213 160.144 36.8934 86.3586 148.668C-45.5411 348.476 94.4642 486.55 192.072 552.16C239.229 583.921 281.719 622.112 318.313 665.625C384.244 743.863 511.08 841.084 662.137 688.753C771.622 578.343 770.003 434.534 740.085 316.887Z" fill="none" id="blob-end" />
<path d="M86.7757 148.943C160.448 37.3411 261.611 5.45561 357.783 8.15527C539.724 13.2627 694.737 140.599 739.6 317.01C769.5 434.584 771.086 578.174 661.782 688.401C586.354 764.466 517.056 778.16 458.427 763.168C400.663 748.397 353.144 705.755 320.251 667.139L318.696 665.303C282.072 621.754 239.547 583.532 192.352 551.745H192.351C143.577 518.96 84.2641 468.102 53.6058 400.531C22.9662 333.001 20.915 248.713 86.7757 148.943Z" stroke="black"/>
</g>
<path d="M594.98 57.161C653.392 82.055 707.551 140.448 753.062 228.96C798.431 317.319 835.151 435.796 790.349 487.274C745.548 538.906 619.224 523.693 517.853 548.894C416.482 574.096 340.205 639.558 260.242 640.633C180.138 641.863 96.2055 578.859 57.0749 493.421C17.8024 408.136 23.3317 300.415 53.9557 212.518C84.5797 124.621 140.44 56.3926 204.24 32.5743C268.04 8.75597 339.638 29.3473 406.841 35.1866C473.902 41.026 536.567 32.267 594.98 57.161Z" fill="none" id="blob-start"/>
<path d="M649.887 288.284C686.587 385.684 670.887 515.784 590.287 579.884C509.587 643.984 364.087 642.084 274.487 574.384C184.987 506.684 151.587 373.084 187.587 276.684C223.687 180.184 329.187 120.884 426.587 123.484C523.987 126.184 613.087 190.884 649.887 288.284Z" fill="none" id="blob-middle"/>
<path d="M862 710.214C862 753.569 672.811 834.214 434.5 834.214C196.189 834.214 0 758.569 0 715.214C0 671.86 196.189 677.214 434.5 677.214C672.811 677.214 862 666.86 862 710.214Z" fill="#3F3D56"/>
<path d="M431.5 793.214C669.811 793.214 863 758.069 863 714.714C863 671.36 669.811 636.214 431.5 636.214C193.189 636.214 0 671.36 0 714.714C0 758.069 193.189 793.214 431.5 793.214Z" fill="#3F3D56"/>
<path d="M594.859 447.738V657.682L629.976 714.913L632.649 719.266H771.212L774.011 447.738H594.859Z" fill="#2F2E41"/>
<path opacity="0.1" d="M594.859 447.738V657.682L629.976 714.913L632.131 447.738H594.859Z" fill="black"/>
<path d="M260.348 442.139V652.083L225.231 709.314L222.558 713.667H83.994L81.195 442.139H260.348Z" fill="#2F2E41"/>
<path opacity="0.1" d="M260.348 442.139V652.083L225.231 709.314L223.075 442.139H260.348Z" fill="black"/>
<path d="M816 437.94V450.537H63V432.342L132.981 395.952H754.416L816 437.94Z" fill="#2F2E41"/>
<path opacity="0.1" d="M816 437.94V450.537H63V432.342L816 437.94Z" fill="black"/>
<path opacity="0.1" d="M170.771 500.924H137.18L123.184 491.126H186.167L170.771 500.924Z" fill="black"/>
<path opacity="0.1" d="M170.771 541.513H137.18L123.184 531.715H186.167L170.771 541.513Z" fill="black"/>
<path opacity="0.1" d="M170.771 598.898H137.18L123.184 589.1H186.167L170.771 598.898Z" fill="black"/>
<path opacity="0.1" d="M170.771 656.282H137.18L123.184 646.485H186.167L170.771 656.282Z" fill="black"/>
<path opacity="0.1" d="M684.435 506.522H718.026L732.022 496.725H669.039L684.435 506.522Z" fill="black"/>
<path opacity="0.1" d="M684.435 547.111H718.026L732.022 537.314H669.039L684.435 547.111Z" fill="black"/>
<path opacity="0.1" d="M684.435 604.496H718.026L732.022 594.699H669.039L684.435 604.496Z" fill="black"/>
<path opacity="0.1" d="M684.435 661.881H718.026L732.022 652.083H669.039L684.435 661.881Z" fill="black"/>
<path d="M565.914 161.252C566.906 161.252 567.71 160.448 567.71 159.457C567.71 158.465 566.906 157.661 565.914 157.661C564.923 157.661 564.119 158.465 564.119 159.457C564.119 160.448 564.923 161.252 565.914 161.252Z" fill="#F2F2F2"/>
<path d="M565.914 357.335C569.683 357.335 572.738 354.28 572.738 350.512C572.738 346.743 569.683 343.689 565.914 343.689C562.146 343.689 559.091 346.743 559.091 350.512C559.091 354.28 562.146 357.335 565.914 357.335Z" fill="#F2F2F2"/>
<path d="M555.281 422.696V426.288H362.071V423.415L362.337 422.696L367.099 409.768H551.331L555.281 422.696Z" fill="#3F3D56"/>
<path d="M629.635 419.181C629.283 420.685 627.954 422.273 624.952 423.774C614.178 429.161 592.272 422.337 592.272 422.337C592.272 422.337 575.393 419.464 575.393 411.923C575.866 411.598 576.361 411.304 576.872 411.043C581.402 408.646 596.42 402.733 623.05 411.293C625.012 411.909 626.764 413.057 628.112 414.61C628.709 415.197 629.158 415.918 629.423 416.712C629.688 417.507 629.761 418.353 629.635 419.181Z" fill="#3F3D56"/>
<path opacity="0.1" d="M629.635 419.181C616.448 424.233 604.694 424.611 592.631 416.232C586.547 412.009 581.02 410.964 576.872 411.043C581.402 408.646 596.42 402.733 623.05 411.293C625.012 411.909 626.764 413.057 628.112 414.61C628.709 415.197 629.158 415.918 629.423 416.712C629.688 417.507 629.761 418.353 629.635 419.181Z" fill="black"/>
<path d="M613.101 416.232C615.679 416.232 617.77 415.589 617.77 414.796C617.77 414.002 615.679 413.359 613.101 413.359C610.522 413.359 608.432 414.002 608.432 414.796C608.432 415.589 610.522 416.232 613.101 416.232Z" fill="#F2F2F2"/>
<path opacity="0.1" d="M555.281 422.696V426.288H362.071V423.415L362.337 422.696H555.281Z" fill="black"/>
<path d="M314.881 402.45C314.881 402.755 315.069 403 315.302 403H524.914C525.149 403 525.334 402.755 525.334 402.45C525.334 402.145 525.147 401.901 524.914 401.901H315.302C315.069 401.901 314.881 402.146 314.881 402.45Z" fill="#CCCCCC"/>
<path d="M391.023 400.638H383.539V401.816H391.023V400.638Z" fill="#B6B3C5"/>
<path d="M457.277 400.835H449.793V402.013H457.277V400.835Z" fill="#B6B3C5"/>
<path d="M431.139 348.21C430.723 350.459 429.424 352.503 427.476 353.977C425.527 355.452 423.055 356.261 420.5 356.261C417.945 356.261 415.473 355.452 413.524 353.977C411.576 352.503 410.277 350.459 409.861 348.21H382.64V400.834H458.361V348.21H431.139Z" fill="#D6D6E3"/>
<path d="M458.58 396.665H382.861V398.497H458.58V396.665Z" fill="#090814"/>
<path d="M572.779 349.585H268.221C267.102 349.584 266.029 349.187 265.238 348.481C264.446 347.775 264.001 346.818 264 345.82V190.766C264.001 189.768 264.446 188.81 265.238 188.104C266.029 187.398 267.102 187.001 268.221 187H572.779C573.898 187.001 574.971 187.398 575.762 188.104C576.553 188.81 576.999 189.767 577 190.766V345.82C576.999 346.818 576.553 347.775 575.762 348.481C574.971 349.187 573.898 349.584 572.779 349.585Z" fill="#090814"/>
<path d="M569.124 192.93H271.092V342.948H569.124V192.93Z" fill="white"/>
<path d="M462.213 286.594H556.226C557.058 286.594 557.855 286.888 558.442 287.412C559.03 287.937 559.36 288.648 559.36 289.389V328.528C559.36 329.269 559.03 329.98 558.442 330.505C557.855 331.029 557.058 331.323 556.226 331.323H462.213C461.381 331.323 460.584 331.029 459.997 330.505C459.409 329.98 459.079 329.269 459.079 328.528V289.389C459.079 288.648 459.409 287.937 459.997 287.412C460.584 286.888 461.381 286.594 462.213 286.594Z" fill="#090814"/>
<path d="M466.913 289.389C467.223 289.389 467.526 289.471 467.784 289.625C468.041 289.778 468.242 289.997 468.361 290.252C468.479 290.508 468.511 290.789 468.45 291.06C468.39 291.331 468.24 291.58 468.021 291.775C467.802 291.971 467.523 292.104 467.219 292.158C466.915 292.212 466.6 292.184 466.314 292.078C466.027 291.973 465.783 291.793 465.61 291.564C465.438 291.334 465.346 291.063 465.346 290.787C465.346 290.416 465.511 290.061 465.805 289.799C466.099 289.536 466.498 289.389 466.913 289.389Z" fill="#6C63FF"/>
<path d="M470.831 289.389C471.14 289.389 471.443 289.471 471.701 289.625C471.959 289.778 472.16 289.997 472.278 290.252C472.397 290.508 472.428 290.789 472.367 291.06C472.307 291.331 472.158 291.58 471.938 291.775C471.719 291.971 471.44 292.104 471.136 292.158C470.832 292.212 470.517 292.184 470.231 292.078C469.945 291.973 469.7 291.793 469.528 291.564C469.356 291.334 469.264 291.063 469.264 290.787C469.264 290.416 469.429 290.061 469.723 289.799C470.016 289.536 470.415 289.389 470.831 289.389Z" fill="#E6E6E6"/>
<path d="M474.748 289.389C475.058 289.389 475.361 289.471 475.618 289.625C475.876 289.778 476.077 289.997 476.195 290.252C476.314 290.508 476.345 290.789 476.285 291.06C476.224 291.331 476.075 291.58 475.856 291.775C475.637 291.971 475.357 292.104 475.053 292.158C474.75 292.212 474.434 292.184 474.148 292.078C473.862 291.973 473.617 291.793 473.445 291.564C473.273 291.334 473.181 291.063 473.181 290.787C473.181 290.416 473.346 290.061 473.64 289.799C473.934 289.536 474.332 289.389 474.748 289.389Z" fill="#E6E6E6"/>
<path d="M473.964 300.572H506.869C507.493 300.572 508.09 300.793 508.531 301.186C508.972 301.579 509.22 302.112 509.22 302.668C509.22 303.224 508.972 303.758 508.531 304.151C508.09 304.544 507.493 304.765 506.869 304.765H473.964C473.341 304.765 472.743 304.544 472.302 304.151C471.862 303.758 471.614 303.224 471.614 302.668C471.614 302.112 471.862 301.579 472.302 301.186C472.743 300.793 473.341 300.572 473.964 300.572Z" fill="#6C63FF"/>
<path d="M466.913 300.572H468.48C469.104 300.572 469.701 300.793 470.142 301.186C470.583 301.579 470.831 302.112 470.831 302.668C470.831 303.224 470.583 303.758 470.142 304.151C469.701 304.544 469.104 304.765 468.48 304.765H466.913C466.29 304.765 465.692 304.544 465.251 304.151C464.811 303.758 464.563 303.224 464.563 302.668C464.563 302.112 464.811 301.579 465.251 301.186C465.692 300.793 466.29 300.572 466.913 300.572Z" fill="#F2F2F2"/>
<path d="M466.913 307.561H493.551C494.174 307.561 494.772 307.782 495.212 308.175C495.653 308.568 495.901 309.101 495.901 309.657C495.901 310.213 495.653 310.747 495.212 311.14C494.772 311.533 494.174 311.754 493.551 311.754H466.913C466.29 311.754 465.692 311.533 465.251 311.14C464.811 310.747 464.563 310.213 464.563 309.657C464.563 309.101 464.811 308.568 465.251 308.175C465.692 307.782 466.29 307.561 466.913 307.561Z" fill="#6C63FF"/>
<path d="M499.035 307.561H541.341C541.964 307.561 542.562 307.782 543.003 308.175C543.444 308.568 543.691 309.101 543.691 309.657C543.691 310.213 543.444 310.747 543.003 311.14C542.562 311.533 541.964 311.754 541.341 311.754H499.035C498.411 311.754 497.814 311.533 497.373 311.14C496.932 310.747 496.684 310.213 496.684 309.657C496.684 309.101 496.932 308.568 497.373 308.175C497.814 307.782 498.411 307.561 499.035 307.561Z" fill="#D6D6E3"/>
<path d="M466.913 314.55H468.48C469.104 314.55 469.701 314.771 470.142 315.164C470.583 315.557 470.831 316.09 470.831 316.646C470.831 317.202 470.583 317.736 470.142 318.129C469.701 318.522 469.104 318.743 468.48 318.743H466.913C466.29 318.743 465.692 318.522 465.251 318.129C464.811 317.736 464.563 317.202 464.563 316.646C464.563 316.09 464.811 315.557 465.251 315.164C465.692 314.771 466.29 314.55 466.913 314.55Z" fill="#F2F2F2"/>
<path d="M473.964 314.55H517.837C518.461 314.55 519.059 314.771 519.499 315.164C519.94 315.557 520.188 316.09 520.188 316.646C520.188 317.202 519.94 317.736 519.499 318.129C519.059 318.522 518.461 318.743 517.837 318.743H473.964C473.341 318.743 472.743 318.522 472.302 318.129C471.862 317.736 471.614 317.202 471.614 316.646C471.614 316.09 471.862 315.557 472.302 315.164C472.743 314.771 473.341 314.55 473.964 314.55Z" fill="#D6D6E3"/>
<path d="M283.978 205.521H442.235C443.066 205.521 443.863 205.815 444.451 206.34C445.038 206.864 445.368 207.575 445.368 208.317V328.528C445.368 329.269 445.038 329.98 444.451 330.505C443.863 331.029 443.066 331.323 442.235 331.323H283.978C283.147 331.323 282.35 331.029 281.762 330.505C281.174 329.98 280.844 329.269 280.844 328.528V208.317C280.844 207.575 281.174 206.864 281.762 206.34C282.35 205.815 283.147 205.521 283.978 205.521Z" fill="#090814"/>
<path d="M288.679 208.317C288.989 208.317 289.291 208.399 289.549 208.552C289.807 208.706 290.008 208.924 290.126 209.179C290.245 209.435 290.276 209.716 290.215 209.987C290.155 210.258 290.006 210.507 289.787 210.703C289.567 210.898 289.288 211.031 288.984 211.085C288.68 211.139 288.365 211.112 288.079 211.006C287.793 210.9 287.548 210.721 287.376 210.491C287.204 210.261 287.112 209.991 287.112 209.714C287.112 209.344 287.277 208.988 287.571 208.726C287.865 208.464 288.263 208.317 288.679 208.317Z" fill="#6C63FF"/>
<path d="M292.596 208.317C292.906 208.317 293.209 208.399 293.466 208.552C293.724 208.706 293.925 208.924 294.044 209.179C294.162 209.435 294.193 209.716 294.133 209.987C294.072 210.258 293.923 210.507 293.704 210.703C293.485 210.898 293.206 211.031 292.902 211.085C292.598 211.139 292.283 211.112 291.996 211.006C291.71 210.9 291.465 210.721 291.293 210.491C291.121 210.261 291.029 209.991 291.029 209.714C291.029 209.344 291.194 208.988 291.488 208.726C291.782 208.464 292.18 208.317 292.596 208.317Z" fill="#E6E6E6"/>
<path d="M296.513 208.317C296.823 208.317 297.126 208.399 297.384 208.552C297.641 208.706 297.842 208.924 297.961 209.179C298.079 209.435 298.11 209.716 298.05 209.987C297.989 210.258 297.84 210.507 297.621 210.703C297.402 210.898 297.123 211.031 296.819 211.085C296.515 211.139 296.2 211.112 295.914 211.006C295.627 210.9 295.382 210.721 295.21 210.491C295.038 210.261 294.946 209.991 294.946 209.714C294.946 209.344 295.111 208.988 295.405 208.726C295.699 208.464 296.098 208.317 296.513 208.317Z" fill="#E6E6E6"/>
<path d="M288.679 221.246H293.379C293.795 221.246 294.193 221.393 294.487 221.656C294.781 221.918 294.946 222.273 294.946 222.644V226.837C294.946 227.208 294.781 227.564 294.487 227.826C294.193 228.088 293.795 228.235 293.379 228.235H288.679C288.263 228.235 287.865 228.088 287.571 227.826C287.277 227.564 287.112 227.208 287.112 226.837V222.644C287.112 222.273 287.277 221.918 287.571 221.656C287.865 221.393 288.263 221.246 288.679 221.246Z" fill="#6C63FF"/>
<path d="M288.679 229.633H293.379C293.795 229.633 294.193 229.78 294.487 230.042C294.781 230.305 294.946 230.66 294.946 231.031V235.224C294.946 235.595 294.781 235.951 294.487 236.213C294.193 236.475 293.795 236.622 293.379 236.622H288.679C288.263 236.622 287.865 236.475 287.571 236.213C287.277 235.951 287.112 235.595 287.112 235.224V231.031C287.112 230.66 287.277 230.305 287.571 230.042C287.865 229.78 288.263 229.633 288.679 229.633Z" fill="#39374D"/>
<path d="M288.679 238.02H293.379C293.795 238.02 294.193 238.167 294.487 238.429C294.781 238.691 294.946 239.047 294.946 239.418V243.611C294.946 243.982 294.781 244.337 294.487 244.599C294.193 244.862 293.795 245.009 293.379 245.009H288.679C288.263 245.009 287.865 244.862 287.571 244.599C287.277 244.337 287.112 243.982 287.112 243.611V239.418C287.112 239.047 287.277 238.691 287.571 238.429C287.865 238.167 288.263 238.02 288.679 238.02Z" fill="#39374D"/>
<path d="M288.679 246.407H293.379C293.795 246.407 294.193 246.554 294.487 246.816C294.781 247.078 294.946 247.434 294.946 247.805V251.998C294.946 252.369 294.781 252.724 294.487 252.986C294.193 253.248 293.795 253.396 293.379 253.396H288.679C288.263 253.396 287.865 253.248 287.571 252.986C287.277 252.724 287.112 252.369 287.112 251.998V247.805C287.112 247.434 287.277 247.078 287.571 246.816C287.865 246.554 288.263 246.407 288.679 246.407Z" fill="#39374D"/>
<path d="M288.679 254.794H293.379C293.795 254.794 294.193 254.941 294.487 255.203C294.781 255.465 294.946 255.821 294.946 256.191V260.385C294.946 260.755 294.781 261.111 294.487 261.373C294.193 261.635 293.795 261.783 293.379 261.783H288.679C288.263 261.783 287.865 261.635 287.571 261.373C287.277 261.111 287.112 260.755 287.112 260.385V256.191C287.112 255.821 287.277 255.465 287.571 255.203C287.865 254.941 288.263 254.794 288.679 254.794Z" fill="#39374D"/>
<path d="M288.679 310.356H293.379C293.795 310.356 294.193 310.504 294.487 310.766C294.781 311.028 294.946 311.383 294.946 311.754V315.948C294.946 316.318 294.781 316.674 294.487 316.936C294.193 317.198 293.795 317.345 293.379 317.345H288.679C288.263 317.345 287.865 317.198 287.571 316.936C287.277 316.674 287.112 316.318 287.112 315.948V311.754C287.112 311.383 287.277 311.028 287.571 310.766C287.865 310.504 288.263 310.356 288.679 310.356Z" fill="#39374D"/>
<path d="M288.679 318.743H293.379C293.795 318.743 294.193 318.89 294.487 319.153C294.781 319.415 294.946 319.77 294.946 320.141V324.334C294.946 324.705 294.781 325.061 294.487 325.323C294.193 325.585 293.795 325.732 293.379 325.732H288.679C288.263 325.732 287.865 325.585 287.571 325.323C287.277 325.061 287.112 324.705 287.112 324.334V320.141C287.112 319.77 287.277 319.415 287.571 319.153C287.865 318.89 288.263 318.743 288.679 318.743Z" fill="#39374D"/>
<path d="M302.781 221.246H324.717C325.133 221.246 325.531 221.393 325.825 221.656C326.119 221.918 326.284 222.273 326.284 222.644C326.284 223.015 326.119 223.37 325.825 223.632C325.531 223.895 325.133 224.042 324.717 224.042H302.781C302.365 224.042 301.967 223.895 301.673 223.632C301.379 223.37 301.214 223.015 301.214 222.644C301.214 222.273 301.379 221.918 301.673 221.656C301.967 221.393 302.365 221.246 302.781 221.246Z" fill="#E6E6E6"/>
<path d="M302.781 226.944H324.717C325.133 226.944 325.531 227.092 325.825 227.354C326.119 227.616 326.284 227.971 326.284 228.342C326.284 228.713 326.119 229.068 325.825 229.331C325.531 229.593 325.133 229.74 324.717 229.74H302.781C302.365 229.74 301.967 229.593 301.673 229.331C301.379 229.068 301.214 228.713 301.214 228.342C301.214 227.971 301.379 227.616 301.673 227.354C301.967 227.092 302.365 226.944 302.781 226.944Z" fill="#E6E6E6"/>
<path d="M302.781 232.643H324.717C325.133 232.643 325.531 232.79 325.825 233.052C326.119 233.314 326.284 233.67 326.284 234.041C326.284 234.411 326.119 234.767 325.825 235.029C325.531 235.291 325.133 235.438 324.717 235.438H302.781C302.365 235.438 301.967 235.291 301.673 235.029C301.379 234.767 301.214 234.411 301.214 234.041C301.214 233.67 301.379 233.314 301.673 233.052C301.967 232.79 302.365 232.643 302.781 232.643Z" fill="#6C63FF"/>
<path d="M302.781 238.341H324.717C325.133 238.341 325.531 238.488 325.825 238.75C326.119 239.013 326.284 239.368 326.284 239.739C326.284 240.11 326.119 240.465 325.825 240.727C325.531 240.989 325.133 241.137 324.717 241.137H302.781C302.365 241.137 301.967 240.989 301.673 240.727C301.379 240.465 301.214 240.11 301.214 239.739C301.214 239.368 301.379 239.013 301.673 238.75C301.967 238.488 302.365 238.341 302.781 238.341Z" fill="#E6E6E6"/>
<path d="M302.781 244.039H324.717C325.133 244.039 325.531 244.186 325.825 244.449C326.119 244.711 326.284 245.066 326.284 245.437C326.284 245.808 326.119 246.163 325.825 246.425C325.531 246.688 325.133 246.835 324.717 246.835H302.781C302.365 246.835 301.967 246.688 301.673 246.425C301.379 246.163 301.214 245.808 301.214 245.437C301.214 245.066 301.379 244.711 301.673 244.449C301.967 244.186 302.365 244.039 302.781 244.039Z" fill="#E6E6E6"/>
<path d="M341.17 221.246H374.075C374.698 221.246 375.296 221.467 375.737 221.86C376.177 222.254 376.425 222.787 376.425 223.343C376.425 223.899 376.177 224.432 375.737 224.826C375.296 225.219 374.698 225.44 374.075 225.44H341.17C340.546 225.44 339.949 225.219 339.508 224.826C339.067 224.432 338.819 223.899 338.819 223.343C338.819 222.787 339.067 222.254 339.508 221.86C339.949 221.467 340.546 221.246 341.17 221.246Z" fill="#6C63FF"/>
<path d="M344.695 235.224H402.67C403.294 235.224 403.892 235.445 404.332 235.838C404.773 236.232 405.021 236.765 405.021 237.321C405.021 237.877 404.773 238.41 404.332 238.804C403.892 239.197 403.294 239.418 402.67 239.418H344.695C344.072 239.418 343.474 239.197 343.033 238.804C342.593 238.41 342.345 237.877 342.345 237.321C342.345 236.765 342.593 236.232 343.033 235.838C343.474 235.445 344.072 235.224 344.695 235.224Z" fill="#F2F2F2"/>
<path d="M345.107 228.235H386.238C387.861 228.235 389.176 229.174 389.176 230.332C389.176 231.49 387.861 232.429 386.238 232.429H345.107C343.485 232.429 342.169 231.49 342.169 230.332C342.169 229.174 343.485 228.235 345.107 228.235Z" fill="#6C63FF"/>
<path d="M345.283 242.213H386.414C388.036 242.213 389.352 243.152 389.352 244.31C389.352 245.468 388.036 246.407 386.414 246.407H345.283C343.66 246.407 342.345 245.468 342.345 244.31C342.345 243.152 343.66 242.213 345.283 242.213Z" fill="#6C63FF"/>
<path d="M341.757 249.202H382.888C384.511 249.202 385.826 250.141 385.826 251.299C385.826 252.457 384.511 253.396 382.888 253.396H341.757C340.135 253.396 338.819 252.457 338.819 251.299C338.819 250.141 340.135 249.202 341.757 249.202Z" fill="#6C63FF"/>
<path d="M463.779 205.521H554.66C555.906 205.521 557.102 205.963 557.983 206.749C558.865 207.536 559.36 208.602 559.36 209.714V257.24C559.36 258.352 558.865 259.418 557.983 260.205C557.102 260.991 555.906 261.433 554.66 261.433H463.779C462.533 261.433 461.337 260.991 460.456 260.205C459.574 259.418 459.079 258.352 459.079 257.24V209.714C459.079 208.602 459.574 207.536 460.456 206.749C461.337 205.963 462.533 205.521 463.779 205.521Z" fill="#F2F2F2"/>
<path d="M491.62 221.246H476.009C475.732 221.246 475.467 221.148 475.271 220.973C475.075 220.799 474.965 220.562 474.965 220.315V212.666C474.965 212.42 475.075 212.183 475.271 212.008C475.467 211.834 475.732 211.735 476.009 211.735H477.922C478.182 211.735 478.432 211.821 478.624 211.977L480.7 213.3C480.836 213.41 481.013 213.471 481.196 213.471H491.717C491.856 213.471 491.992 213.495 492.12 213.543C492.248 213.591 492.363 213.66 492.46 213.748C492.557 213.836 492.634 213.94 492.686 214.054C492.737 214.169 492.763 214.291 492.761 214.414L492.664 220.327C492.66 220.572 492.548 220.805 492.353 220.977C492.158 221.148 491.895 221.245 491.62 221.246Z" fill="#6C63FF"/>
<path d="M542.333 221.246H526.721C526.445 221.246 526.179 221.148 525.984 220.973C525.788 220.799 525.678 220.562 525.677 220.315V212.666C525.678 212.42 525.788 212.183 525.984 212.008C526.179 211.834 526.445 211.735 526.721 211.735H528.635C528.894 211.735 529.145 211.821 529.337 211.977L531.413 213.3C531.548 213.41 531.725 213.471 531.909 213.471H542.43C542.568 213.471 542.705 213.495 542.833 213.543C542.96 213.591 543.076 213.66 543.173 213.748C543.27 213.836 543.347 213.94 543.398 214.054C543.45 214.169 543.476 214.291 543.474 214.414L543.377 220.327C543.372 220.572 543.26 220.805 543.065 220.977C542.87 221.148 542.607 221.245 542.333 221.246Z" fill="#6C63FF"/>
<path d="M516.474 221.246H500.862C500.585 221.246 500.32 221.148 500.124 220.973C499.929 220.799 499.818 220.562 499.818 220.315V212.666C499.818 212.42 499.929 212.183 500.124 212.008C500.32 211.834 500.585 211.735 500.862 211.735H502.775C503.035 211.735 503.286 211.821 503.478 211.977L505.554 213.3C505.689 213.41 505.866 213.471 506.049 213.471H516.571C516.709 213.471 516.846 213.495 516.973 213.543C517.101 213.591 517.217 213.66 517.314 213.748C517.411 213.836 517.487 213.94 517.539 214.054C517.591 214.169 517.616 214.291 517.615 214.414L517.518 220.327C517.513 220.572 517.401 220.805 517.206 220.977C517.011 221.148 516.748 221.245 516.474 221.246Z" fill="#6C63FF"/>
<path d="M491.62 238.097H476.009C475.732 238.097 475.467 237.999 475.271 237.824C475.075 237.649 474.965 237.413 474.965 237.166V229.517C474.965 229.27 475.075 229.034 475.271 228.859C475.467 228.685 475.732 228.586 476.009 228.586H477.922C478.182 228.586 478.432 228.672 478.624 228.828L480.7 230.151C480.836 230.261 481.013 230.322 481.196 230.322H491.717C491.856 230.322 491.992 230.346 492.12 230.394C492.248 230.441 492.363 230.511 492.46 230.599C492.557 230.687 492.634 230.791 492.686 230.905C492.737 231.02 492.763 231.142 492.761 231.265L492.664 237.178C492.66 237.423 492.548 237.656 492.353 237.828C492.158 237.999 491.895 238.096 491.62 238.097Z" fill="#6C63FF"/>
<path d="M542.333 238.097H526.721C526.445 238.097 526.179 237.999 525.984 237.824C525.788 237.649 525.678 237.413 525.677 237.166V229.517C525.678 229.27 525.788 229.034 525.984 228.859C526.179 228.685 526.445 228.586 526.721 228.586H528.635C528.894 228.586 529.145 228.672 529.337 228.828L531.413 230.151C531.548 230.261 531.725 230.322 531.909 230.322H542.43C542.568 230.322 542.705 230.346 542.833 230.394C542.96 230.441 543.076 230.511 543.173 230.599C543.27 230.687 543.347 230.791 543.398 230.905C543.45 231.02 543.476 231.142 543.474 231.265L543.377 237.178C543.372 237.423 543.26 237.656 543.065 237.828C542.87 237.999 542.607 238.096 542.333 238.097Z" fill="#6C63FF"/>
<path d="M516.474 238.097H500.862C500.585 238.097 500.32 237.999 500.124 237.824C499.929 237.649 499.818 237.413 499.818 237.166V229.517C499.818 229.27 499.929 229.034 500.124 228.859C500.32 228.685 500.585 228.586 500.862 228.586H502.775C503.035 228.586 503.286 228.672 503.478 228.828L505.554 230.151C505.689 230.261 505.866 230.322 506.049 230.322H516.571C516.709 230.322 516.846 230.346 516.973 230.394C517.101 230.441 517.217 230.511 517.314 230.599C517.411 230.687 517.487 230.791 517.539 230.905C517.591 231.02 517.616 231.142 517.615 231.265L517.518 237.178C517.513 237.423 517.401 237.656 517.206 237.828C517.011 237.999 516.748 238.096 516.474 238.097Z" fill="#6C63FF"/>
<path d="M491.62 253.958H476.009C475.732 253.958 475.467 253.86 475.271 253.685C475.075 253.51 474.965 253.274 474.965 253.027V245.378C474.965 245.131 475.075 244.895 475.271 244.72C475.467 244.545 475.732 244.447 476.009 244.447H477.922C478.182 244.447 478.432 244.533 478.624 244.689L480.7 246.011C480.836 246.122 481.013 246.183 481.196 246.183H491.717C491.856 246.183 491.992 246.207 492.12 246.255C492.248 246.302 492.363 246.372 492.46 246.46C492.557 246.548 492.634 246.652 492.686 246.766C492.737 246.88 492.763 247.003 492.761 247.126L492.664 253.039C492.66 253.284 492.548 253.517 492.353 253.688C492.158 253.86 491.895 253.957 491.62 253.958Z" fill="#6C63FF"/>
<path d="M542.333 253.958H526.721C526.445 253.958 526.179 253.86 525.984 253.685C525.788 253.51 525.678 253.274 525.677 253.027V245.378C525.678 245.131 525.788 244.895 525.984 244.72C526.179 244.545 526.445 244.447 526.721 244.447H528.635C528.894 244.447 529.145 244.533 529.337 244.689L531.413 246.011C531.548 246.122 531.725 246.183 531.909 246.183H542.43C542.568 246.183 542.705 246.207 542.833 246.255C542.96 246.302 543.076 246.372 543.173 246.46C543.27 246.548 543.347 246.652 543.398 246.766C543.45 246.88 543.476 247.003 543.474 247.126L543.377 253.039C543.372 253.284 543.26 253.517 543.065 253.688C542.87 253.86 542.607 253.957 542.333 253.958Z" fill="#6C63FF"/>
<path d="M516.474 253.958H500.862C500.585 253.958 500.32 253.86 500.124 253.685C499.929 253.51 499.818 253.274 499.818 253.027V245.378C499.818 245.131 499.929 244.895 500.124 244.72C500.32 244.545 500.585 244.447 500.862 244.447H502.775C503.035 244.447 503.286 244.533 503.478 244.689L505.554 246.011C505.689 246.122 505.866 246.183 506.049 246.183H516.571C516.709 246.183 516.846 246.207 516.973 246.255C517.101 246.302 517.217 246.372 517.314 246.46C517.411 246.548 517.487 246.652 517.539 246.766C517.591 246.88 517.616 247.003 517.615 247.126L517.518 253.039C517.513 253.284 517.401 253.517 517.206 253.688C517.011 253.86 516.748 253.957 516.474 253.958Z" fill="#6C63FF"/>
</g>
<defs>
<filter id="filter0_d_1_2" x="28.5403" y="7.5" width="733.009" height="769.55" filterUnits="userSpaceOnUse" color-interpolation-filters="sRGB">
<feFlood flood-opacity="0" result="BackgroundImageFix"/>
<feColorMatrix in="SourceAlpha" type="matrix" values="0 0 0 0 0 0 0 0 0 0 0 0 0 0 0 0 0 0 127 0" result="hardAlpha"/>
<feOffset dy="4"/>
<feGaussianBlur stdDeviation="2"/>
<feComposite in2="hardAlpha" operator="out"/>
<feColorMatrix type="matrix" values="0 0 0 0 0 0 0 0 0 0 0 0 0 0 0 0 0 0 0.25 0"/>
<feBlend mode="normal" in2="BackgroundImageFix" result="effect1_dropShadow_1_2"/>
<feBlend mode="normal" in="SourceGraphic" in2="effect1_dropShadow_1_2" result="shape"/>
</filter>
<clipPath id="clip0_1_2">
<rect width="863" height="826.714" fill="white" transform="translate(0 0.5)"/>
</clipPath>
</defs>
</svg>
