<svg width="420" height="420" viewBox="0 0 420 420" fill="none" xmlns="http://www.w3.org/2000/svg">
<path d="M210 420C325.98 420 420 325.98 420 210C420 94.0202 325.98 0 210 0C94.0202 0 0 94.0202 0 210C0 325.98 94.0202 420 210 420Z" fill="#E0E0E0"/>
<path d="M210 236.25C253.492 236.25 288.75 200.992 288.75 157.5C288.75 114.008 253.492 78.75 210 78.75C166.508 78.75 131.25 114.008 131.25 157.5C131.25 200.992 166.508 236.25 210 236.25Z" fill="#BDBDBD"/>
<path d="M105 341.25C105 283.5 152.25 236.25 210 236.25C267.75 236.25 315 283.5 315 341.25H105Z" fill="#BDBDBD"/>
</svg>
