<svg width="874" height="288" viewBox="0 0 874 288" fill="none" xmlns="http://www.w3.org/2000/svg">
<path d="M214.2 144H179.09C179.09 143.46 178.89 142.92 178.47 142.5L133.62 97.65C133.23 97.26 133 96.72 133 96.16V67.54C133 65.43 135.55 64.38 137.04 65.87L213.49 142.32C213.97 142.79 214.2 143.4 214.2 144Z" fill="url(#paint0_linear_6_24)"/>
<path d="M214.2 144C214.2 144.6 213.97 145.21 213.5 145.68L137.05 222.14C135.56 223.63 133.01 222.58 133.01 220.47V191.85C133.01 191.29 133.23 190.75 133.63 190.36L178.48 145.51C178.89 145.1 179.1 144.55 179.1 144.01H214.2V144Z" fill="url(#paint1_linear_6_24)"/>
<path d="M120.55 92.2V195.8C119.95 195.8 119.34 195.57 118.87 195.1L69.4401 145.67C68.5101 144.74 68.5101 143.25 69.4401 142.32L77.4601 134.3V139.43L85.9001 147.88V125.85L89.77 121.98L96.3001 115.45L96.31 158.28L108.1 170.07V103.66L109.49 102.27L118.87 92.89C119.35 92.43 119.95 92.2 120.55 92.2Z" fill="url(#paint2_linear_6_24)"/>
<path d="M171.66 142.33L122.23 92.9C121.76 92.43 121.16 92.2 120.55 92.2V195.8C121.15 195.8 121.76 195.57 122.23 195.1L171.66 145.67C172.58 144.75 172.58 143.25 171.66 142.33ZM142.22 160.78C139.89 163.72 133.13 170.08 133.13 170.08L132.87 117.41C132.87 117.41 138.63 122.52 140.98 125.51C143.66 128.93 148.18 136.48 148.22 144.05C148.25 152.14 144.84 157.47 142.22 160.78Z" fill="url(#paint3_linear_6_24)"/>
<path d="M108.11 96.16C108.11 96.72 107.89 97.26 107.49 97.65L62.64 142.5C62.23 142.91 62.02 143.46 62.02 144H26.91C26.91 143.4 27.14 142.79 27.61 142.32L104.07 65.86C105.56 64.37 108.1 65.43 108.1 67.54L108.11 96.16Z" fill="url(#paint4_linear_6_24)"/>
<path d="M108.11 191.85L108.1 220.47C108.1 222.58 105.55 223.63 104.07 222.15L27.61 145.68C27.14 145.21 26.91 144.61 26.91 144H62.02C62.02 144.54 62.22 145.08 62.64 145.5L107.49 190.35C107.89 190.75 108.11 191.29 108.11 191.85Z" fill="url(#paint5_linear_6_24)"/>
<path d="M321.68 111.705L301.43 177H289.235L275.87 134.295C275.66 133.695 275.45 133.035 275.24 132.315C275.03 131.595 274.835 130.83 274.655 130.02C274.475 130.83 274.28 131.595 274.07 132.315C273.86 133.035 273.65 133.695 273.44 134.295L259.94 177H247.7L227.495 111.705H238.835C240.005 111.705 240.98 111.975 241.76 112.515C242.57 113.055 243.095 113.775 243.335 114.675L253.46 151.485C253.7 152.505 253.94 153.615 254.18 154.815C254.45 155.985 254.705 157.23 254.945 158.55C255.215 157.2 255.5 155.94 255.8 154.77C256.1 153.6 256.43 152.505 256.79 151.485L268.58 114.675C268.82 113.925 269.33 113.25 270.11 112.65C270.92 112.02 271.895 111.705 273.035 111.705H276.995C278.165 111.705 279.11 111.99 279.83 112.56C280.58 113.1 281.135 113.805 281.495 114.675L293.24 151.485C293.6 152.445 293.93 153.495 294.23 154.635C294.53 155.745 294.815 156.93 295.085 158.19C295.325 156.93 295.55 155.745 295.76 154.635C296 153.495 296.24 152.445 296.48 151.485L306.605 114.675C306.815 113.895 307.325 113.205 308.135 112.605C308.945 112.005 309.92 111.705 311.06 111.705H321.68ZM342.616 122.28V139.065H364.396V149.28H342.616V166.425H370.606V177H329.026V111.705H370.606V122.28H342.616ZM416.075 124.215C415.655 124.905 415.22 125.415 414.77 125.745C414.35 126.045 413.795 126.195 413.105 126.195C412.445 126.195 411.725 125.97 410.945 125.52C410.195 125.04 409.31 124.53 408.29 123.99C407.27 123.45 406.1 122.955 404.78 122.505C403.46 122.025 401.915 121.785 400.145 121.785C397.025 121.785 394.685 122.49 393.125 123.9C391.565 125.28 390.785 127.095 390.785 129.345C390.785 130.785 391.205 131.985 392.045 132.945C392.915 133.875 394.04 134.685 395.42 135.375C396.83 136.065 398.42 136.68 400.19 137.22C401.96 137.76 403.775 138.36 405.635 139.02C407.495 139.65 409.31 140.4 411.08 141.27C412.85 142.14 414.425 143.235 415.805 144.555C417.215 145.875 418.34 147.495 419.18 149.415C420.05 151.305 420.485 153.615 420.485 156.345C420.485 159.315 419.96 162.105 418.91 164.715C417.89 167.295 416.405 169.56 414.455 171.51C412.505 173.43 410.09 174.945 407.21 176.055C404.36 177.165 401.12 177.72 397.49 177.72C395.42 177.72 393.35 177.51 391.28 177.09C389.24 176.67 387.26 176.085 385.34 175.335C383.45 174.585 381.665 173.685 379.985 172.635C378.305 171.585 376.835 170.415 375.575 169.125L379.535 162.735C379.865 162.255 380.3 161.865 380.84 161.565C381.38 161.235 381.95 161.07 382.55 161.07C383.36 161.07 384.215 161.37 385.115 161.97C386.015 162.57 387.05 163.23 388.22 163.95C389.39 164.67 390.74 165.33 392.27 165.93C393.83 166.53 395.69 166.83 397.85 166.83C401 166.83 403.43 166.11 405.14 164.67C406.88 163.23 407.75 161.085 407.75 158.235C407.75 156.585 407.315 155.25 406.445 154.23C405.605 153.21 404.495 152.355 403.115 151.665C401.735 150.975 400.16 150.39 398.39 149.91C396.62 149.4 394.805 148.845 392.945 148.245C391.085 147.645 389.27 146.925 387.5 146.085C385.73 145.245 384.155 144.135 382.775 142.755C381.395 141.375 380.27 139.665 379.4 137.625C378.56 135.585 378.14 133.05 378.14 130.02C378.14 127.59 378.62 125.235 379.58 122.955C380.54 120.675 381.95 118.65 383.81 116.88C385.67 115.11 387.95 113.685 390.65 112.605C393.38 111.525 396.5 110.985 400.01 110.985C403.94 110.985 407.57 111.6 410.9 112.83C414.26 114.03 417.095 115.71 419.405 117.87L416.075 124.215ZM488.821 144.33C488.821 149.1 488.011 153.495 486.391 157.515C484.801 161.505 482.536 164.94 479.596 167.82C476.686 170.7 473.176 172.95 469.066 174.57C464.956 176.19 460.396 177 455.386 177H430.276V111.705H455.386C460.396 111.705 464.956 112.515 469.066 114.135C473.176 115.755 476.686 118.02 479.596 120.93C482.536 123.81 484.801 127.245 486.391 131.235C488.011 135.225 488.821 139.59 488.821 144.33ZM474.961 144.33C474.961 140.91 474.511 137.835 473.611 135.105C472.711 132.375 471.421 130.065 469.741 128.175C468.061 126.285 466.006 124.83 463.576 123.81C461.176 122.79 458.446 122.28 455.386 122.28H443.866V166.425H455.386C458.446 166.425 461.176 165.93 463.576 164.94C466.006 163.92 468.061 162.465 469.741 160.575C471.421 158.655 472.711 156.33 473.611 153.6C474.511 150.87 474.961 147.78 474.961 144.33ZM512.332 122.28V139.065H534.112V149.28H512.332V166.425H540.322V177H498.742V111.705H540.322V122.28H512.332ZM607.572 111.705L581.292 177H569.052L542.772 111.705H553.662C554.832 111.705 555.777 111.99 556.497 112.56C557.247 113.1 557.802 113.805 558.162 114.675L572.292 152.295C572.832 153.705 573.357 155.25 573.867 156.93C574.407 158.58 574.902 160.32 575.352 162.15C575.742 160.32 576.162 158.58 576.612 156.93C577.092 155.25 577.602 153.705 578.142 152.295L592.182 114.675C592.482 113.925 593.007 113.25 593.757 112.65C594.537 112.02 595.497 111.705 596.637 111.705H607.572Z" fill="#002F5A"/>
<path d="M635.665 144.195C639.895 144.195 642.985 143.175 644.935 141.135C646.915 139.095 647.905 136.305 647.905 132.765C647.905 131.145 647.65 129.675 647.14 128.355C646.66 127.005 645.91 125.865 644.89 124.935C643.9 123.975 642.64 123.24 641.11 122.73C639.58 122.22 637.765 121.965 635.665 121.965H627.115V144.195H635.665ZM635.665 111.705C640.135 111.705 643.99 112.23 647.23 113.28C650.5 114.33 653.185 115.8 655.285 117.69C657.385 119.55 658.93 121.77 659.92 124.35C660.94 126.93 661.45 129.735 661.45 132.765C661.45 135.975 660.925 138.915 659.875 141.585C658.825 144.255 657.235 146.55 655.105 148.47C652.975 150.39 650.29 151.89 647.05 152.97C643.81 154.02 640.015 154.545 635.665 154.545H627.115V177H613.615V111.705H635.665ZM690.471 142.62C692.661 142.62 694.551 142.35 696.141 141.81C697.731 141.24 699.036 140.475 700.056 139.515C701.076 138.525 701.826 137.37 702.306 136.05C702.786 134.73 703.026 133.29 703.026 131.73C703.026 128.64 701.991 126.24 699.921 124.53C697.881 122.82 694.761 121.965 690.561 121.965H683.541V142.62H690.471ZM722.106 177H709.911C707.631 177 705.981 176.13 704.961 174.39L692.541 154.365C692.031 153.585 691.461 153.015 690.831 152.655C690.231 152.295 689.331 152.115 688.131 152.115H683.541V177H670.041V111.705H690.561C695.121 111.705 699.021 112.185 702.261 113.145C705.501 114.075 708.156 115.38 710.226 117.06C712.296 118.74 713.811 120.75 714.771 123.09C715.731 125.4 716.211 127.95 716.211 130.74C716.211 132.9 715.896 134.955 715.266 136.905C714.666 138.825 713.781 140.58 712.611 142.17C711.441 143.76 710.001 145.17 708.291 146.4C706.581 147.63 704.631 148.62 702.441 149.37C703.311 149.85 704.121 150.435 704.871 151.125C705.621 151.785 706.296 152.58 706.896 153.51L722.106 177ZM790.524 144.33C790.524 149.1 789.714 153.525 788.094 157.605C786.504 161.685 784.239 165.21 781.299 168.18C778.389 171.15 774.879 173.49 770.769 175.2C766.659 176.88 762.099 177.72 757.089 177.72C752.079 177.72 747.519 176.88 743.409 175.2C739.299 173.49 735.774 171.15 732.834 168.18C729.894 165.21 727.614 161.685 725.994 157.605C724.404 153.525 723.609 149.1 723.609 144.33C723.609 139.56 724.404 135.15 725.994 131.1C727.614 127.02 729.894 123.495 732.834 120.525C735.774 117.555 739.299 115.23 743.409 113.55C747.519 111.84 752.079 110.985 757.089 110.985C762.099 110.985 766.659 111.84 770.769 113.55C774.879 115.23 778.389 117.57 781.299 120.57C784.239 123.54 786.504 127.065 788.094 131.145C789.714 135.195 790.524 139.59 790.524 144.33ZM776.709 144.33C776.709 140.91 776.259 137.85 775.359 135.15C774.459 132.42 773.154 130.11 771.444 128.22C769.764 126.3 767.709 124.845 765.279 123.855C762.879 122.835 760.149 122.325 757.089 122.325C754.029 122.325 751.284 122.835 748.854 123.855C746.424 124.845 744.354 126.3 742.644 128.22C740.964 130.11 739.674 132.42 738.774 135.15C737.874 137.85 737.424 140.91 737.424 144.33C737.424 147.78 737.874 150.87 738.774 153.6C739.674 156.3 740.964 158.595 742.644 160.485C744.354 162.375 746.424 163.83 748.854 164.85C751.284 165.84 754.029 166.335 757.089 166.335C760.149 166.335 762.879 165.84 765.279 164.85C767.709 163.83 769.764 162.375 771.444 160.485C773.154 158.595 774.459 156.3 775.359 153.6C776.259 150.87 776.709 147.78 776.709 144.33Z" fill="#006089"/>
<defs>
<linearGradient id="paint0_linear_6_24" x1="126.347" y1="73.2142" x2="205.666" y2="152.534" gradientUnits="userSpaceOnUse">
<stop stop-color="#006089"/>
<stop offset="1" stop-color="#002F5A"/>
</linearGradient>
<linearGradient id="paint1_linear_6_24" x1="205.668" y1="135.471" x2="126.345" y2="214.794" gradientUnits="userSpaceOnUse">
<stop stop-color="#006089"/>
<stop offset="1" stop-color="#002F5A"/>
</linearGradient>
<linearGradient id="paint2_linear_6_24" x1="68.7563" y1="144.001" x2="120.554" y2="144.001" gradientUnits="userSpaceOnUse">
<stop stop-color="#C0D7DD"/>
<stop offset="1" stop-color="#90B8C7"/>
</linearGradient>
<linearGradient id="paint3_linear_6_24" x1="120.554" y1="144.001" x2="172.353" y2="144.001" gradientUnits="userSpaceOnUse">
<stop stop-color="#C0D7DD"/>
<stop offset="1" stop-color="#90B8C7"/>
</linearGradient>
<linearGradient id="paint4_linear_6_24" x1="114.763" y1="73.214" x2="35.4424" y2="152.534" gradientUnits="userSpaceOnUse">
<stop stop-color="#006089"/>
<stop offset="1" stop-color="#002F5A"/>
</linearGradient>
<linearGradient id="paint5_linear_6_24" x1="35.4408" y1="135.471" x2="114.764" y2="214.794" gradientUnits="userSpaceOnUse">
<stop stop-color="#006089"/>
<stop offset="1" stop-color="#002F5A"/>
</linearGradient>
</defs>
</svg>
