<?xml version="1.0" encoding="utf-8"?>
<!-- Generator: Adobe Illustrator 26.2.1, SVG Export Plug-In . SVG Version: 6.00 Build 0)  -->
<svg version="1.1" id="Layer_1" xmlns="http://www.w3.org/2000/svg" xmlns:xlink="http://www.w3.org/1999/xlink" x="0px" y="0px"
	 viewBox="0 0 873.56 288" style="enable-background:new 0 0 873.56 288;" xml:space="preserve">
<style type="text/css">
	.st0{fill:#002F5A;stroke:#FFFFFF;stroke-width:7;stroke-linejoin:round;stroke-miterlimit:10;}
	.st1{fill:url(#SVGID_1_);}
	.st2{fill:url(#SVGID_00000042716709232198076960000003879193014866959767_);}
	.st3{fill:url(#SVGID_00000072280111367848697930000002996925462221596088_);}
	.st4{fill:url(#SVGID_00000170269932227377919380000004347535736930591126_);}
	.st5{fill:url(#SVGID_00000067232417551495530150000011919912672927049132_);}
	.st6{fill:none;}
	.st7{fill:url(#SVGID_00000027576804789796838340000016206139562585278122_);}
	.st8{fill:#FFFFFF;}
	.st9{fill:url(#SVGID_00000183248819176477645320000013853580064567842193_);}
	.st10{fill:url(#SVGID_00000079446469486543430850000013558320460084837823_);}
	.st11{fill:url(#SVGID_00000078020340045138728780000008809621611317983390_);}
	.st12{fill:url(#SVGID_00000044871028001534378890000008597965157131208878_);}
	.st13{fill:url(#SVGID_00000119807249189350448910000008089725846472295079_);}
	.st14{fill:url(#SVGID_00000011725165077515069090000010629664142665580928_);}
	.st15{fill:#002F5A;}
	.st16{fill:url(#SVGID_00000182495076705935730940000006955028467474460054_);}
	.st17{fill:url(#SVGID_00000029762330685930066980000003265788751143335557_);}
	.st18{fill:url(#SVGID_00000039833053140811642500000016340272523644579486_);}
	.st19{fill:url(#SVGID_00000181073193122105116900000003564954769856472219_);}
	.st20{fill:url(#SVGID_00000132070024113651954900000001924193789004067231_);}
	.st21{fill:url(#SVGID_00000046314353684269478760000013270274437036558212_);}
	.st22{fill:url(#SVGID_00000075162188269194898420000014404038120258680205_);}
	.st23{fill:url(#SVGID_00000005950801230808060300000016202161636873579196_);}
	.st24{fill:url(#SVGID_00000126297327817846301740000013500817134826902203_);}
	.st25{fill:url(#SVGID_00000039118924972198081740000010869724223715316665_);}
	.st26{fill:url(#SVGID_00000104690360788483270100000016741327974496838058_);}
	.st27{fill:url(#SVGID_00000083091144517225262160000000061658348964220323_);}
	.st28{fill:url(#SVGID_00000000182075628155468850000008528257524762092417_);}
	.st29{fill:url(#SVGID_00000023991989131393700450000009492355501790233748_);}
	.st30{fill:url(#SVGID_00000132800840108391576130000005169883287083767997_);}
	.st31{fill:url(#SVGID_00000009592277553182355710000010153653433480719265_);}
	.st32{fill:url(#SVGID_00000160153347018246874820000006682928196383697577_);}
	.st33{fill:url(#SVGID_00000116194568378053955220000012754164224986344320_);}
	.st34{fill:url(#SVGID_00000158751037718256995490000010131533535801705398_);}
	.st35{fill:url(#SVGID_00000153681169896090584000000010616824501875135909_);}
	.st36{fill:url(#SVGID_00000094577277426736314460000011517254390120980366_);}
	.st37{fill:url(#SVGID_00000106107379979093966800000008862959346281902755_);}
	.st38{fill:url(#SVGID_00000166636743485414507060000013620272962713745077_);}
	.st39{fill:url(#SVGID_00000005968188630219561030000012270262597452027323_);}
	.st40{font-family:'Lato-Black';}
	.st41{font-size:90px;}
	.st42{fill:#006089;}
	.st43{font-family:'AcuminProWide-SemiboldItalic';}
	.st44{font-size:29px;}
</style>
<g>
	<linearGradient id="SVGID_1_" gradientUnits="userSpaceOnUse" x1="126.3465" y1="73.2142" x2="205.6663" y2="152.5341">
		<stop  offset="0" style="stop-color:#006089"/>
		<stop  offset="1" style="stop-color:#002F5A"/>
	</linearGradient>
	<path class="st1" d="M214.2,144h-35.11c0-0.54-0.2-1.08-0.62-1.5l-44.85-44.85c-0.39-0.39-0.62-0.93-0.62-1.49V67.54
		c0-2.11,2.55-3.16,4.04-1.67l76.45,76.45C213.97,142.79,214.2,143.4,214.2,144z"/>
	
		<linearGradient id="SVGID_00000093159245601159660730000006216066369702989445_" gradientUnits="userSpaceOnUse" x1="205.668" y1="135.4706" x2="126.3448" y2="214.7937">
		<stop  offset="0" style="stop-color:#006089"/>
		<stop  offset="1" style="stop-color:#002F5A"/>
	</linearGradient>
	<path style="fill:url(#SVGID_00000093159245601159660730000006216066369702989445_);" d="M214.2,144c0,0.6-0.23,1.21-0.7,1.68
		l-76.45,76.46c-1.49,1.49-4.04,0.44-4.04-1.67v-28.62c0-0.56,0.22-1.1,0.62-1.49l44.85-44.85c0.41-0.41,0.62-0.96,0.62-1.5H214.2z"
		/>
	
		<linearGradient id="SVGID_00000023267137682372213310000002847137003129363117_" gradientUnits="userSpaceOnUse" x1="68.7562" y1="144.0015" x2="120.5544" y2="144.0015">
		<stop  offset="0" style="stop-color:#C0D7DD"/>
		<stop  offset="1" style="stop-color:#90B8C7"/>
	</linearGradient>
	<path style="fill:url(#SVGID_00000023267137682372213310000002847137003129363117_);" d="M120.55,92.2v103.6
		c-0.6,0-1.21-0.23-1.68-0.7l-49.43-49.43c-0.93-0.93-0.93-2.42,0-3.35l8.02-8.02v5.13l8.44,8.45v-22.03l3.87-3.87l6.53-6.53
		l0.01,42.83l11.79,11.79v-66.41l1.39-1.39l9.38-9.38C119.35,92.43,119.95,92.2,120.55,92.2z"/>
	
		<linearGradient id="SVGID_00000060002859601978377040000012255612844852375680_" gradientUnits="userSpaceOnUse" x1="120.5544" y1="144.0015" x2="172.3526" y2="144.0015">
		<stop  offset="0" style="stop-color:#C0D7DD"/>
		<stop  offset="1" style="stop-color:#90B8C7"/>
	</linearGradient>
	<path style="fill:url(#SVGID_00000060002859601978377040000012255612844852375680_);" d="M171.66,142.33L122.23,92.9
		c-0.47-0.47-1.07-0.7-1.68-0.7v103.6c0.6,0,1.21-0.23,1.68-0.7l49.43-49.43C172.58,144.75,172.58,143.25,171.66,142.33z
		 M142.22,160.78c-2.33,2.94-9.09,9.3-9.09,9.3l-0.26-52.67c0,0,5.76,5.11,8.11,8.1c2.68,3.42,7.2,10.97,7.24,18.54
		C148.25,152.14,144.84,157.47,142.22,160.78z"/>
	<polygon class="st6" points="108.11,97.04 96.31,108.83 96.31,108.73 	"/>
	
		<linearGradient id="SVGID_00000000916313595481009830000015187803423509480853_" gradientUnits="userSpaceOnUse" x1="114.7625" y1="73.214" x2="35.4424" y2="152.5341">
		<stop  offset="0" style="stop-color:#006089"/>
		<stop  offset="1" style="stop-color:#002F5A"/>
	</linearGradient>
	<path style="fill:url(#SVGID_00000000916313595481009830000015187803423509480853_);" d="M108.11,96.16c0,0.56-0.22,1.1-0.62,1.49
		L62.64,142.5c-0.41,0.41-0.62,0.96-0.62,1.5H26.91c0-0.6,0.23-1.21,0.7-1.68l76.46-76.46c1.49-1.49,4.03-0.43,4.03,1.68
		L108.11,96.16z"/>
	
		<linearGradient id="SVGID_00000101104276712528186550000011159983824227255981_" gradientUnits="userSpaceOnUse" x1="35.4408" y1="135.4706" x2="114.7642" y2="214.794">
		<stop  offset="0" style="stop-color:#006089"/>
		<stop  offset="1" style="stop-color:#002F5A"/>
	</linearGradient>
	<path style="fill:url(#SVGID_00000101104276712528186550000011159983824227255981_);" d="M108.11,191.85l-0.01,28.62
		c0,2.11-2.55,3.16-4.03,1.68l-76.46-76.47c-0.47-0.47-0.7-1.07-0.7-1.68h35.11c0,0.54,0.2,1.08,0.62,1.5l44.85,44.85
		C107.89,190.75,108.11,191.29,108.11,191.85z"/>
</g>
<text transform="matrix(1 0 0 1 238.6284 161.5178)"><tspan x="0" y="0" class="st15 st40 st41">WESDEV</tspan><tspan x="381.33" y="0" class="st42 st40 st41">PRO</tspan><tspan x="0" y="34.8" class="st42 st43 st44">&lt;</tspan><tspan x="22.59" y="34.8" class="st15 st43 st44">Web Design</tspan><tspan x="200.65" y="34.8" class="st42 st43 st44">/</tspan><tspan x="215.67" y="34.8" class="st15 st43 st44">Developing</tspan><tspan x="382.68" y="34.8" class="st42 st43 st44">&gt;</tspan></text>
</svg>
