<svg width="564" height="68" viewBox="0 0 564 68" fill="none" xmlns="http://www.w3.org/2000/svg">
<path d="M94.68 1.705L74.43 67H62.235L48.87 24.295C48.66 23.695 48.45 23.035 48.24 22.315C48.03 21.595 47.835 20.83 47.655 20.02C47.475 20.83 47.28 21.595 47.07 22.315C46.86 23.035 46.65 23.695 46.44 24.295L32.94 67H20.7L0.495 1.705H11.835C13.005 1.705 13.98 1.975 14.76 2.515C15.57 3.055 16.095 3.775 16.335 4.675L26.46 41.485C26.7 42.505 26.94 43.615 27.18 44.815C27.45 45.985 27.705 47.23 27.945 48.55C28.215 47.2 28.5 45.94 28.8 44.77C29.1 43.6 29.43 42.505 29.79 41.485L41.58 4.675C41.82 3.925 42.33 3.25 43.11 2.65C43.92 2.02 44.895 1.705 46.035 1.705H49.995C51.165 1.705 52.11 1.99 52.83 2.56C53.58 3.1 54.135 3.805 54.495 4.675L66.24 41.485C66.6 42.445 66.93 43.495 67.23 44.635C67.53 45.745 67.815 46.93 68.085 48.19C68.325 46.93 68.55 45.745 68.76 44.635C69 43.495 69.24 42.445 69.48 41.485L79.605 4.675C79.815 3.895 80.325 3.205 81.135 2.60499C81.945 2.005 82.92 1.705 84.06 1.705H94.68ZM115.616 12.28V29.065H137.396V39.28H115.616V56.425H143.606V67H102.026V1.705H143.606V12.28H115.616ZM189.075 14.215C188.655 14.905 188.22 15.415 187.77 15.745C187.35 16.045 186.795 16.195 186.105 16.195C185.445 16.195 184.725 15.97 183.945 15.52C183.195 15.04 182.31 14.53 181.29 13.99C180.27 13.45 179.1 12.955 177.78 12.505C176.46 12.025 174.915 11.785 173.145 11.785C170.025 11.785 167.685 12.49 166.125 13.9C164.565 15.28 163.785 17.095 163.785 19.345C163.785 20.785 164.205 21.985 165.045 22.945C165.915 23.875 167.04 24.685 168.42 25.375C169.83 26.065 171.42 26.68 173.19 27.22C174.96 27.76 176.775 28.36 178.635 29.02C180.495 29.65 182.31 30.4 184.08 31.27C185.85 32.14 187.425 33.235 188.805 34.555C190.215 35.875 191.34 37.495 192.18 39.415C193.05 41.305 193.485 43.615 193.485 46.345C193.485 49.315 192.96 52.105 191.91 54.715C190.89 57.295 189.405 59.56 187.455 61.51C185.505 63.43 183.09 64.945 180.21 66.055C177.36 67.165 174.12 67.72 170.49 67.72C168.42 67.72 166.35 67.51 164.28 67.09C162.24 66.67 160.26 66.085 158.34 65.335C156.45 64.585 154.665 63.685 152.985 62.635C151.305 61.585 149.835 60.415 148.575 59.125L152.535 52.735C152.865 52.255 153.3 51.865 153.84 51.565C154.38 51.235 154.95 51.07 155.55 51.07C156.36 51.07 157.215 51.37 158.115 51.97C159.015 52.57 160.05 53.23 161.22 53.95C162.39 54.67 163.74 55.33 165.27 55.93C166.83 56.53 168.69 56.83 170.85 56.83C174 56.83 176.43 56.11 178.14 54.67C179.88 53.23 180.75 51.085 180.75 48.235C180.75 46.585 180.315 45.25 179.445 44.23C178.605 43.21 177.495 42.355 176.115 41.665C174.735 40.975 173.16 40.39 171.39 39.91C169.62 39.4 167.805 38.845 165.945 38.245C164.085 37.645 162.27 36.925 160.5 36.085C158.73 35.245 157.155 34.135 155.775 32.755C154.395 31.375 153.27 29.665 152.4 27.625C151.56 25.585 151.14 23.05 151.14 20.02C151.14 17.59 151.62 15.235 152.58 12.955C153.54 10.675 154.95 8.65 156.81 6.88C158.67 5.11 160.95 3.685 163.65 2.60499C166.38 1.52499 169.5 0.984994 173.01 0.984994C176.94 0.984994 180.57 1.59999 183.9 2.82999C187.26 4.03 190.095 5.71 192.405 7.87L189.075 14.215ZM261.821 34.33C261.821 39.1 261.011 43.495 259.391 47.515C257.801 51.505 255.536 54.94 252.596 57.82C249.686 60.7 246.176 62.95 242.066 64.57C237.956 66.19 233.396 67 228.386 67H203.276V1.705H228.386C233.396 1.705 237.956 2.515 242.066 4.135C246.176 5.755 249.686 8.02 252.596 10.93C255.536 13.81 257.801 17.245 259.391 21.235C261.011 25.225 261.821 29.59 261.821 34.33ZM247.961 34.33C247.961 30.91 247.511 27.835 246.611 25.105C245.711 22.375 244.421 20.065 242.741 18.175C241.061 16.285 239.006 14.83 236.576 13.81C234.176 12.79 231.446 12.28 228.386 12.28H216.866V56.425H228.386C231.446 56.425 234.176 55.93 236.576 54.94C239.006 53.92 241.061 52.465 242.741 50.575C244.421 48.655 245.711 46.33 246.611 43.6C247.511 40.87 247.961 37.78 247.961 34.33ZM285.332 12.28V29.065H307.112V39.28H285.332V56.425H313.322V67H271.742V1.705H313.322V12.28H285.332ZM380.572 1.705L354.292 67H342.052L315.772 1.705H326.662C327.832 1.705 328.777 1.99 329.497 2.56C330.247 3.1 330.802 3.805 331.162 4.675L345.292 42.295C345.832 43.705 346.357 45.25 346.867 46.93C347.407 48.58 347.902 50.32 348.352 52.15C348.742 50.32 349.162 48.58 349.612 46.93C350.092 45.25 350.602 43.705 351.142 42.295L365.182 4.675C365.482 3.925 366.007 3.25 366.757 2.65C367.537 2.02 368.497 1.705 369.637 1.705H380.572Z" fill="#002F5A"/>
<path d="M408.665 34.195C412.895 34.195 415.985 33.175 417.935 31.135C419.915 29.095 420.905 26.305 420.905 22.765C420.905 21.145 420.65 19.675 420.14 18.355C419.66 17.005 418.91 15.865 417.89 14.935C416.9 13.975 415.64 13.24 414.11 12.73C412.58 12.22 410.765 11.965 408.665 11.965H400.115V34.195H408.665ZM408.665 1.705C413.135 1.705 416.99 2.23 420.23 3.28C423.5 4.33 426.185 5.8 428.285 7.69C430.385 9.55 431.93 11.77 432.92 14.35C433.94 16.93 434.45 19.735 434.45 22.765C434.45 25.975 433.925 28.915 432.875 31.585C431.825 34.255 430.235 36.55 428.105 38.47C425.975 40.39 423.29 41.89 420.05 42.97C416.81 44.02 413.015 44.545 408.665 44.545H400.115V67H386.615V1.705H408.665ZM463.471 32.62C465.661 32.62 467.551 32.35 469.141 31.81C470.731 31.24 472.036 30.475 473.056 29.515C474.076 28.525 474.826 27.37 475.306 26.05C475.786 24.73 476.026 23.29 476.026 21.73C476.026 18.64 474.991 16.24 472.921 14.53C470.881 12.82 467.761 11.965 463.561 11.965H456.541V32.62H463.471ZM495.106 67H482.911C480.631 67 478.981 66.13 477.961 64.39L465.541 44.365C465.031 43.585 464.461 43.015 463.831 42.655C463.231 42.295 462.331 42.115 461.131 42.115H456.541V67H443.041V1.705H463.561C468.121 1.705 472.021 2.185 475.261 3.145C478.501 4.075 481.156 5.38 483.226 7.06C485.296 8.74 486.811 10.75 487.771 13.09C488.731 15.4 489.211 17.95 489.211 20.74C489.211 22.9 488.896 24.955 488.266 26.905C487.666 28.825 486.781 30.58 485.611 32.17C484.441 33.76 483.001 35.17 481.291 36.4C479.581 37.63 477.631 38.62 475.441 39.37C476.311 39.85 477.121 40.435 477.871 41.125C478.621 41.785 479.296 42.58 479.896 43.51L495.106 67ZM563.524 34.33C563.524 39.1 562.714 43.525 561.094 47.605C559.504 51.685 557.239 55.21 554.299 58.18C551.389 61.15 547.879 63.49 543.769 65.2C539.659 66.88 535.099 67.72 530.089 67.72C525.079 67.72 520.519 66.88 516.409 65.2C512.299 63.49 508.774 61.15 505.834 58.18C502.894 55.21 500.614 51.685 498.994 47.605C497.404 43.525 496.609 39.1 496.609 34.33C496.609 29.56 497.404 25.15 498.994 21.1C500.614 17.02 502.894 13.495 505.834 10.525C508.774 7.555 512.299 5.23 516.409 3.55C520.519 1.83999 525.079 0.984994 530.089 0.984994C535.099 0.984994 539.659 1.83999 543.769 3.55C547.879 5.23 551.389 7.57 554.299 10.57C557.239 13.54 559.504 17.065 561.094 21.145C562.714 25.195 563.524 29.59 563.524 34.33ZM549.709 34.33C549.709 30.91 549.259 27.85 548.359 25.15C547.459 22.42 546.154 20.11 544.444 18.22C542.764 16.3 540.709 14.845 538.279 13.855C535.879 12.835 533.149 12.325 530.089 12.325C527.029 12.325 524.284 12.835 521.854 13.855C519.424 14.845 517.354 16.3 515.644 18.22C513.964 20.11 512.674 22.42 511.774 25.15C510.874 27.85 510.424 30.91 510.424 34.33C510.424 37.78 510.874 40.87 511.774 43.6C512.674 46.3 513.964 48.595 515.644 50.485C517.354 52.375 519.424 53.83 521.854 54.85C524.284 55.84 527.029 56.335 530.089 56.335C533.149 56.335 535.879 55.84 538.279 54.85C540.709 53.83 542.764 52.375 544.444 50.485C546.154 48.595 547.459 46.3 548.359 43.6C549.259 40.87 549.709 37.78 549.709 34.33Z" fill="#006089"/>
</svg>
